<?xml version="1.0" encoding="UTF-8"?>
<svg id="Layer_2" xmlns="http://www.w3.org/2000/svg" viewBox="0 0 987.73 1055.2">
  <defs>
    <style>
      .cls-1 {
        fill: #fff;
      }
    </style>
  </defs>
  <g id="Layer_1-2" data-name="Layer_1">
    <g>
      <path class="cls-1" d="M971.33,340.58c-3.62-6.87-7.26-13.73-10.85-20.62-11.61-22.3-22.96-44.75-34.87-66.9-12.24-22.76-29.01-42.23-46.3-61.2-34.11-37.45-72.68-69.44-116.92-94.35-36.74-20.68-75.58-36.33-116.1-47.84-39.86-11.32-80.45-18.13-121.86-20.47-48.67-2.75-96.4,2.87-143.52,14.68-42.36,10.61-82.97,25.67-120.94,47.51-42.84,24.63-81.92,54.04-116.11,89.88-47.76,50.06-83.14,107.59-105.29,173.17-2.87,8.51-5.29,17.18-7.64,25.86-.99,3.67-2.79,4.71-6.46,4.03-7.8-1.44-15.67-2.55-24.47-3.94,2.34-8.24,4.34-15.9,6.69-23.46,19.67-63.33,50.81-120.37,93.57-171.09,27.96-33.17,59.35-62.69,94.89-87.5,43.92-30.65,91.1-55.21,142.12-72,30.12-9.91,60.93-16.87,92.34-21.23C456.22,1.41,482.93-.48,509.8.11c49.89,1.09,98.74,8.83,146.52,23.24,68.77,20.74,129.25,56.2,182.66,103.85,34.43,30.71,63.16,66.27,86.76,105.91,19.16,32.17,34.15,66.24,45.77,101.81.41,1.26.67,2.57.91,3.88.08.45-.08.95-.14,1.42-.32.12-.64.24-.96.36Z"/>
      <path class="cls-1" d="M941.36,816.11c-4.89,7.27-9.56,14.48-14.49,21.51-32.01,45.65-72.28,82.88-116.63,116.29-33.99,25.6-71.78,43.93-110.24,61.18-31.88,14.3-65.14,24.42-99.52,30.67-43.27,7.87-86.87,11.09-130.81,8.63-71.13-3.98-138.4-22.24-202.15-54.07-59.19-29.55-109.5-70.15-151.77-120.76-20.13-24.1-36.14-50.97-51.08-78.6-12.33-22.79-23.27-46.04-31.18-70.71-.69-2.15-1.11-4.38-1.65-6.57l1.2-.49c1.45,2.83,2.95,5.63,4.34,8.49,12.43,25.42,24.43,50.99,40.26,74.66,36.32,54.29,80.74,100.38,135.66,135.91,51.5,33.32,107.05,57.14,167.17,70.25,46.29,10.1,92.99,15.4,140.33,13.45,34-1.4,67.6-6.36,100.66-14.55,42.61-10.56,83.12-26.76,121.15-48.44,55.75-31.78,105.08-71.55,144.87-122.39,5.44-6.95,10.47-14.21,15.88-21.19,1.1-1.42,3-3.1,4.56-3.14,10.8-.27,21.61-.14,33.44-.14Z"/>
      <path class="cls-1" d="M128.19,366.12c3.58-6.47,6.06-11.73,9.22-16.55,19.69-30.06,46.54-49.98,82.63-54.76,15.41-2.04,31.24-1.12,46.88-1.13,30.66-.02,61.32.42,91.98.33,12.04-.04,16.89-4.29,20.35-15.99,2.08-7.02,4.38-13.99,6.28-21.06,5.58-20.77,19.64-32.29,39.78-38.04,33.16-9.47,66.74-9.77,100.54-5.24,9.86,1.32,19.56,3.92,29.29,6.11,21.52,4.85,33.38,19.41,39.48,39.63,2.4,7.97,4.72,15.96,6.91,23.99,1.3,4.78,4.42,7.39,9.12,8.05,7.08,1,14.19,2.44,21.3,2.49,36.33.25,72.66.04,108.99.15,20.77.06,40.83,3.46,59.01,14.27,14.64,8.7,27.16,19.79,37.21,33.59.67.92,1.13,1.98,2.56,4.51-5.68,0-10.4-.34-15.05.08-6.59.6-11.98-1.1-17.56-4.94-17.79-12.26-38.19-15.96-59.36-16.03-39.32-.13-78.64.05-117.96-.19-10.29-.06-20.62-.78-30.85-1.96-11.52-1.33-19.8-7.78-23.88-18.7-3.84-10.28-7.69-20.64-10.34-31.27-4.29-17.19-16.54-23.7-32.33-25.75-29.06-3.77-58.18-2.81-87.24.04-15.23,1.5-25.57,9.34-29.9,24.57-2.69,9.44-5.83,18.76-9.1,28.02-5.01,14.15-14.76,22.7-30.06,24.08-5.8.52-11.63,1-17.44,1.01-31.67.06-63.33-.03-95-.06-11.48-.01-23.04-.92-34.42.12-25.3,2.32-45.28,14.7-60.27,35.03-2.67,3.62-5.36,5.14-9.82,5.06-8.16-.15-16.32.33-24.49.53-1.6.04-3.21,0-6.45,0Z"/>
      <path class="cls-1" d="M122.83,673.01c.8,7.89,1.46,15.8,2.44,23.67,2.87,23.29,5.64,46.6,13.81,68.85,9.34,25.42,24.41,45.74,50.01,56.73,17,7.3,35.16,9.12,53.31,9.24,39.97.25,79.95-.63,119.93-.58,106.14.13,212.28.5,318.43.8,16.5.05,32.99.33,49.49.26,17.46-.07,34.53-2.27,50.4-10.31,11.5-5.83,20.97-13.97,28.83-24.2,1.34-1.75,4.25-3.14,6.48-3.21,10.44-.33,20.89-.15,32.64-.15-2.49,4.69-4.25,8.57-6.5,12.15-18.65,29.6-45.11,47.99-79.49,54.62-5.83,1.13-11.93,1.19-17.91,1.19-169.3.06-338.59-.08-507.89.13-46.67.06-79.13-22.65-101.88-61.5-13.18-22.51-15.67-47.29-14.58-72.9.7-16.59-.17-33.24-.24-49.87,0-1.72.65-3.45,1.01-5.18l1.73.27Z"/>
      <path class="cls-1" d="M745.64,577.33c5.15,0,8.76.09,12.35-.02,9.82-.29,19.65-.55,29.46-1.05,3.43-.18,5.33.77,6.83,4.14,19.19,43.04,38.55,86,57.86,128.98.67,1.49,1.37,2.98,2.48,5.39,5.53-10.81,10.66-20.82,15.77-30.84,18.25-35.75,36.54-71.47,54.67-107.28,1.76-3.47,3.87-4.64,7.71-4.68,11.49-.12,22.97-.73,34.46-1.13,1.6-.06,3.21,0,5.93,0-3.22,5.5-5.61,10.39-8.74,14.74-3.82,5.3-4.89,11.07-5.02,17.38-.63,30.82-1.41,61.64-2.15,92.46-.62,25.65-1.33,51.3-1.84,76.95-.07,3.42-1.09,4.75-4.56,4.69-9.11-.14-18.22-.05-27.93-.05,1.14-45.26,2.29-90.49,3.46-137.01-1.37,1.9-2.17,2.77-2.7,3.78-17.28,32.69-34.45,65.43-51.88,98.03-2.11,3.94-1.05,6.73.69,10.14,5.39,10.54,5.65,7.68-2.3,15.67-5.38,5.4-10.79,10.76-16.83,16.79-20.97-46.12-41.6-91.48-62.23-136.84-.36.05-.72.1-1.07.15-.22,4.05-.55,8.1-.65,12.16-.81,33.81-1.57,67.63-2.38,101.44-.13,5.66-.54,11.32-.59,16.98-.02,2.71-.95,4-3.74,3.99-9.31-.05-18.63-.02-28.91-.02,0-1.7-.05-4.09,0-6.47,1.35-55.63,2.64-111.27,4.18-166.9.18-6.59-.89-12.39-4.62-17.87-2.59-3.81-4.57-8.03-7.72-13.68Z"/>
      <path class="cls-1" d="M452.19,576.26c-10.84,0-20.98-.07-31.11.03-3.82.04-3.21-2.54-3.16-4.8.4-17.32.83-34.64,1.26-51.96,1.02-40.98,2.1-81.95,2.96-122.93.05-2.36-1.13-5.12-2.59-7.06-4.47-5.91-9.35-11.5-14.83-18.13,6.09-.37,10.98-.77,15.87-.93,8.33-.28,16.67-.2,24.98-.69,3.62-.21,5.78,1.06,7.97,3.8,29.64,37.08,59.39,74.07,89.12,111.07,1.03,1.28,2.16,2.48,4.08,4.69.2-2.49.38-3.98.42-5.48.96-36.81,1.91-73.62,2.86-110.43.18-7,.16-7.01,7.34-7.21,8.49-.24,16.99-.47,25.48-.69.3,0,.61.2,1.84.64-1.77,69.98-3.54,140.25-5.32,210.52-.48.18-.97.36-1.45.54-40.21-49.33-80.43-98.65-120.64-147.98-.43.05-.86.11-1.29.16-1.25,48.41-2.5,96.82-3.8,146.82Z"/>
      <path class="cls-1" d="M658.25,423.45c-1.28,48.25-2.56,96.5-3.85,145.48h-34.08c0-4.64-.11-9.58.02-14.51,1.29-50.46,2.16-100.95,4.28-151.37.51-12.01-1.76-21.34-10.48-29.34-2.39-2.19-4.2-5-7.08-8.5,4.03-.31,6.91-.63,9.8-.75,10.32-.41,20.65-.65,30.96-1.18,3.35-.17,5.49.92,7.59,3.55,29.85,37.34,59.82,74.59,89.76,111.86,1.09,1.36,2.29,2.65,4.18,4.83.19-2.62.36-4.04.39-5.46.85-37.14,1.77-74.28,2.42-111.43.08-4.85,1.22-6.83,6.43-6.61,9.12.4,18.26.11,28.33.11-1.79,69.74-3.58,139.99-5.38,210.24-.5.15-1,.31-1.49.46-40.21-49.32-80.42-98.64-120.63-147.96-.4.19-.8.37-1.19.56Z"/>
      <path class="cls-1" d="M224.81,377.42c-1.73,68.13-3.45,136.31-5.2,205.09-10.85.32-21.12.62-31.4.91-3.45.1-2.98-2.46-2.93-4.56.33-14.49.7-28.97,1.07-43.46.31-11.82.57-23.64,1.01-35.46.12-3.34-.76-4.78-4.44-4.65-29.63,1.02-59.26,1.94-88.9,2.7-3.99.1-5.02,1.63-5.1,5.36-.53,25.64-1.37,51.28-1.8,76.92-.08,4.88-1.31,6.68-6.48,6.53-7.97-.22-15.97.41-23.95.83-3.21.17-4.27-.81-4.18-4.26,1.33-51.62,2.47-103.24,3.74-154.86.35-14.15,1.05-28.29,1.37-42.43.07-3.2.98-4.39,4.29-4.39,7.99,0,16-.1,23.97-.64,4.76-.32,6.33,1.04,6.16,5.97-.88,25.3-1.43,50.61-2.1,75.91-.17,6.23-.19,6.33,6.26,6.14,28.97-.86,57.93-1.86,86.9-2.6,3.96-.1,5.08-1.46,5.16-5.25.55-25.98,1.41-51.95,1.86-77.92.08-4.64,1.6-6.08,6.05-5.97,9.27.23,18.56.07,28.64.07Z"/>
      <path class="cls-1" d="M393.45,547.73c-5.13,10.16-9.62,19.39-14.54,28.39-.63,1.16-3.49,1.47-5.34,1.54-21.81.73-43.63,1.32-65.45,2-13.65.43-27.3.96-40.95,1.43-6.47.22-6.51.21-6.37-6,1.11-48.81,2.2-97.62,3.37-146.43.39-16.32,1.12-32.63,1.48-48.95.08-3.45,1.18-4.52,4.63-4.61,38.48-.97,76.95-2.1,115.42-3.17,2.73-.08,5.47,0,9.18,0-3.82,7.64-7.72,14.39-10.62,21.55-2.57,6.33-6.42,8.22-13.19,8.28-22.49.2-44.96,1.28-67.44,1.9-3.2.09-4.35,1.19-4.4,4.41-.26,15.49-.61,30.98-1.18,46.47-.14,3.82,1.09,4.88,4.81,4.74,21.64-.82,43.29-1.45,64.93-2.1,7.47-.22,7.44-.16,7.38,7.1-.05,6.96-.01,13.92-.01,21.22-3.13.25-5.07.49-7.01.55-21.82.68-43.63,1.42-65.45,1.92-4.31.1-5.57,1.56-5.65,5.88-.3,17.32-1.04,34.63-1.6,51.95-.05,1.46,0,2.92,0,4.81,32.48-.95,64.53-1.88,98-2.86Z"/>
      <path class="cls-1" d="M520.15,638.38c-6.89-5.49-12.58-10.97-19.14-15.09-26.19-16.44-59.12-12.67-81.97,8.92-27.69,26.16-32.73,76.74-10.36,107.53,13.29,18.29,31.69,26.03,54.18,25,20.6-.94,37.35-9.89,51.85-23.85,3.09-2.98,5.99-6.16,9.6-9.89,6.56,7.5,12.77,14.59,19.43,22.2-11.94,16.39-28.28,29.94-49.29,36.97-29.55,9.89-58.79,9.42-86.6-5.86-27.66-15.2-42.76-39.59-47.47-70.23-4.98-32.39,2.12-62.22,21.83-88.73,30.98-41.68,90.55-55.75,134.07-31.05,8.54,4.84,15.66,12.22,23.22,18.69.98.84,1.45,4.06.73,4.84-6.55,7.05-13.41,13.81-20.07,20.54Z"/>
      <path class="cls-1" d="M734.11,784.53c-10.96,0-21.92.12-32.87-.16-1.34-.03-3.22-2.03-3.83-3.53-5.49-13.58-10.87-27.21-15.99-40.94-1.27-3.41-2.92-4.47-6.52-4.33-21.81.82-43.63,1.47-65.45,1.96-3.72.08-5.71,1.42-7.16,4.78-6.21,14.37-12.56,28.67-19.07,42.91-.66,1.44-2.67,3.12-4.15,3.2-9.64.56-19.31.72-28.97.98-.77.02-1.55-.22-2.94-.44,1.74-3.97,3.26-7.6,4.91-11.17,24.4-52.93,48.75-105.89,73.35-158.73,2.38-5.12,3.32-9.6.42-14.54-2.69-4.57-1.82-8.08,2.28-11.65,5.51-4.8,10.42-10.3,15.61-15.47,1.13-1.13,2.39-2.13,4.1-3.65,29.25,70.07,58.22,139.44,87.19,208.82-.3.65-.6,1.3-.9,1.95ZM615.88,709.56c17.77-.6,34.53-1.16,52.26-1.76-8.31-20.88-16.21-40.73-24.55-61.68-9.47,21.68-18.35,42.01-27.71,63.44Z"/>
      <path class="cls-1" d="M804.93,358.12c6.09,0,10.84.06,15.59-.01,6.33-.1,12.67-.16,18.98-.53,3.08-.18,4.8.88,6.4,3.52,15.72,25.91,31.58,51.74,47.41,77.58.43.7.97,1.32,2.04,2.74,2.75-4.13,5.31-7.88,7.77-11.69,15.58-24.04,31.17-48.06,46.63-72.17,1.62-2.53,3.33-3.76,6.36-3.72,10.3.13,20.6.05,31.61.05-.81,1.47-1.53,3-2.45,4.39-23.88,36.32-47.82,72.6-71.61,108.98-1.45,2.22-2.41,5.17-2.49,7.81-.85,26.81-1.56,53.63-2.07,80.44-.08,4.21-1.17,5.98-5.63,5.94-8.33-.08-16.66.26-24.98.62-3.05.13-4.01-.76-3.92-3.95.81-27.14,1.51-54.29,2.01-81.43.05-2.76-.88-5.93-2.35-8.28-21.9-34.82-43.98-69.53-65.99-104.28-.93-1.46-1.68-3.03-3.31-6.01Z"/>
      <path class="cls-1" d="M292.26,191.15h-14.21v-80.43h14.21c0,10.14,0,20.08,0,30.02,0,2.14-.38,4.48,3.05,4.45,10.14-.07,20.29-.03,30.71-.03v-34.44h14.64v80.22h-14.02c0-12.45-.1-24.74.06-37.02.05-3.67-1.19-5.02-4.9-4.92-8.33.21-16.66.19-24.99.04-3.46-.07-4.66,1.18-4.62,4.65.15,12.3.06,24.6.06,37.46Z"/>
      <path class="cls-1" d="M446.15,191.13h-11.5c0-11.91.03-23.5-.02-35.08-.01-2.49-.14-5-.5-7.45-.94-6.44-4.25-9.36-10.2-9.23-5.64.11-10.58,4.09-10.71,9.79-.33,13.77-.11,27.55-.11,41.82h-12.72v-52.35c3.4-1.43,7.46-3.13,12.04-5.06.31,2.37.58,4.39.91,6.96,1.87-1.54,3.32-2.85,4.89-4,5.75-4.19,11.99-6,18.69-2.66,6.26,3.12,8.97,8.71,9.16,15.49.18,6.82.08,13.64.08,20.46,0,6.94,0,13.88,0,21.31Z"/>
      <path class="cls-1" d="M458.17,138.56c3.23-1.38,7.29-3.12,11.72-5.01.22,2.44.4,4.52.65,7.24,1.88-1.57,3.29-2.89,4.85-4.02,5.7-4.13,11.86-6.3,18.68-3.12,6.38,2.97,9.21,8.45,9.39,15.29.2,7.65.23,15.31.29,22.96.04,6.27,0,12.54,0,19.18h-11.7c0-13.94.09-27.55-.05-41.15-.05-4.62-1.9-8.67-6.66-10.13-4.64-1.42-9.33-.49-12.05,3.67-1.8,2.75-2.85,6.45-2.94,9.76-.33,12.42-.13,24.86-.13,37.75h-12.05v-52.44Z"/>
      <path class="cls-1" d="M391.29,173.18c-.31,8.08-3.73,14.35-11.12,17.37-8.38,3.44-16.38,2.28-23.19-4.05-12.54-11.65-11.87-38.28,1.32-49.19,7.03-5.82,15.04-6.8,23.46-3.39,6.33,2.57,12.54,12.12,12.08,18.83-.08,1.13-2.38,2.96-3.71,3.01-7.32.31-14.65.11-21.98.18-6.63.07-7.4.96-7.13,7.69.05,1.33,0,2.69.29,3.98,1.45,6.57,3.71,12.67,11.18,14.51,7.16,1.76,12.66-1.17,17.05-6.69.6-.75,1.18-1.51,1.77-2.26ZM371.13,152.59c.83,0,1.66,0,2.49,0,8.23-.06,9.48-1.8,7.07-9.84-.14-.48-.33-.94-.52-1.4-1.5-3.71-3.47-6.89-8.11-6.88-4.51,0-6.84,2.92-8.45,6.6-4.32,9.91-3.23,11.54,7.52,11.52Z"/>
      <path class="cls-1" d="M557.06,155.94c-4.03,0-8.12,0-12.2,0-3.83,0-7.66-.02-11.49,0-8.83.03-10.5,2.1-8.63,10.88,1.23,5.78,2.79,11.43,8.66,14.42,6.19,3.15,14.39.96,19.2-5.12.99-1.25,1.88-2.57,3.13-4.31.01,8.32-5.27,16.16-12.28,18.93-8.84,3.5-18.25,1.23-24.54-5.92-10.29-11.7-9.58-35.12,1.39-46.1,6.75-6.76,16.76-8.59,25.36-4.64,7.24,3.33,11.9,11.87,11.4,21.85ZM524.1,152.6c5.45,0,9.23,0,13.01,0,8.21,0,9.61-1.94,7.14-9.94-.39-1.26-.91-2.52-1.57-3.67-3.32-5.83-10.4-6.48-13.73-.73-2.28,3.94-3.04,8.76-4.85,14.33Z"/>
      <path class="cls-1" d="M649.98,211.72q1.16-7.45,7.99-7.33c5.9.1,9.64-3.01,9.8-8.89.08-3.07-.49-6.34-1.55-9.23-6.29-17.17-12.82-34.25-19.57-52.19,4.32,0,8.69-.28,12.97.2,1.02.11,2.02,2.66,2.58,4.24,4.29,12.23,8.47,24.5,13.81,36.85,1.26-3.44,2.6-6.85,3.77-10.32,3.17-9.46,6.09-19,9.53-28.35.58-1.59,3.24-2.41,4.94-3.59.4.45.81.91,1.21,1.36-2.06,4.96-4.29,9.86-6.16,14.89-6.4,17.15-12.6,34.38-19.02,51.53-3.56,9.5-10.6,13.21-20.3,10.84Z"/>
      <path class="cls-1" d="M608.74,176.92c.86,1.39,1.44,3.11,2.63,4.12,2.51,2.14,5.15,4.28,8.06,5.77,5.86,2.99,12.5,1.56,15.28-2.85,2.56-4.05.89-9.54-4.76-13.7-5.75-4.23-12.19-7.58-17.68-12.09-8.58-7.06-6.89-19.23,2.93-23.76,2.23-1.03,4.72-1.78,7.16-2.05,3.12-.34,6.34-.34,9.46,0,7.63.84,8.35,1.99,7.03,10.47-1.8-1.48-3.22-3.21-5.05-4.03-3.4-1.52-7.01-3.38-10.59-3.5-5.73-.21-8.59,5.2-5.58,10.12,1.58,2.59,4.06,4.82,6.57,6.61,4.05,2.89,8.56,5.13,12.7,7.91,6.83,4.58,9.24,10.44,7.42,18.04-1.78,7.44-6.89,12.05-14.16,13.01-5.65.75-11.57-.04-17.32-.59-4.72-.45-6.99-3.26-6.11-8.21.23-1.29.18-2.62.27-3.93.58-.45,1.17-.89,1.75-1.34Z"/>
      <path class="cls-1" d="M564.43,177.37c2.45,2.3,4.08,4.65,6.32,5.75,4.2,2.07,8.7,4.58,13.19,4.81,7.85.41,11.54-7.07,6.91-13.48-2.16-2.99-5.53-5.17-8.57-7.42-4.53-3.36-9.68-5.99-13.8-9.77-7.91-7.25-5.44-19.09,4.47-23.17,6.74-2.77,13.7-2.73,20.56-.72,5.31,1.55,1.97,6.07,2.37,9.59-.93-.78-1.84-1.59-2.79-2.34-1.57-1.23-3.05-2.61-4.77-3.59-5.59-3.17-11.63-2.51-13.96,1.36-2.15,3.56-.39,8.54,4.86,12.27,4.34,3.07,9.07,5.58,13.54,8.47,7.86,5.08,10.7,11.34,8.73,18.88-2.05,7.84-8.38,12.88-17.23,13.43-3.47.21-7.01.2-10.46-.2-9.68-1.12-11.02-3.07-9.37-13.86Z"/>
    </g>
  </g>
</svg>